<svg xmlns="http://www.w3.org/2000/svg" version="1.1" xmlns:xlink="http://www.w3.org/1999/xlink" xmlns:svgjs="http://svgjs.dev/svgjs" width="1440" height="1440" preserveAspectRatio="none" viewBox="0 0 1440 1440"><g mask="url(&quot;#SvgjsMask1144&quot;)" fill="none"><rect width="1440" height="1440" x="0" y="0" fill="url(&quot;#SvgjsLinearGradient1145&quot;)"></rect><path d="M0 0L155.54 0L0 665.06z" fill="rgba(255, 255, 255, .1)"></path><path d="M0 665.06L155.54 0L540.42 0L0 968.1499999999999z" fill="rgba(255, 255, 255, .075)"></path><path d="M0 968.1499999999999L540.42 0L619.5 0L0 983.5299999999999z" fill="rgba(255, 255, 255, .05)"></path><path d="M0 983.5299999999999L619.5 0L845.09 0L0 1170.1799999999998z" fill="rgba(255, 255, 255, .025)"></path><path d="M1440 1440L1111.13 1440L1440 1022.23z" fill="rgba(0, 0, 0, .1)"></path><path d="M1440 1022.23L1111.13 1440L609.7400000000001 1440L1440 626.9300000000001z" fill="rgba(0, 0, 0, .075)"></path><path d="M1440 626.9300000000001L609.74 1440L263.19 1440L1440 497.31000000000006z" fill="rgba(0, 0, 0, .05)"></path><path d="M1440 497.31000000000006L263.19000000000005 1440L138.90000000000003 1440L1440 162.51000000000005z" fill="rgba(0, 0, 0, .025)"></path></g><defs><mask id="SvgjsMask1144"><rect width="1440" height="1440" fill="#ffffff"></rect></mask><linearGradient x1="100%" y1="100%" x2="0%" y2="0%" gradientUnits="userSpaceOnUse" id="SvgjsLinearGradient1145"><stop stop-color="rgba(159, 29, 29, 1)" offset="0"></stop><stop stop-color="#00459e" offset="1"></stop></linearGradient></defs></svg>